<svg width="476" height="306" viewBox="0 0 476 306" fill="none" xmlns="http://www.w3.org/2000/svg">
<path d="M238 0C369.444 0 476 76.2005 476 170.199C476 214.627 452.195 255.079 413.209 285.389C392.487 298.443 367.942 306 341.626 306C320.346 306 300.223 301.059 282.345 292.265C268.535 285.473 253.173 281.877 237.777 281.877C222.381 281.877 207.018 285.474 193.207 292.266C175.329 301.059 155.207 306 133.927 306C108.562 306 84.8403 298.98 64.6037 286.783C24.5441 256.325 0 215.311 0 170.199C0 76.2005 106.556 0 238 0Z" fill="#F5F5F5"/>
<path d="M293.552 91.293C293.552 95.4434 292.819 99.3089 291.354 102.89C289.808 106.389 287.855 109.604 285.495 112.533C283.135 115.463 280.531 118.148 277.682 120.59C276.218 121.811 274.793 122.991 273.41 124.13C272.026 125.188 270.643 126.246 269.26 127.304C266.493 129.338 263.929 131.251 261.569 133.041C259.29 134.75 257.581 136.378 256.442 137.924C255.954 138.575 255.384 139.592 254.733 140.976C254.082 142.278 253.757 143.783 253.757 145.492C253.757 149.887 252.373 153.508 249.606 156.356C246.921 159.205 242.689 160.629 236.911 160.629C230.726 160.629 226.25 158.92 223.483 155.502C220.716 152.084 219.333 148.422 219.333 144.516C219.333 139.145 220.269 134.506 222.14 130.6C224.012 126.856 226.372 123.642 229.22 120.956C232.069 118.189 235.121 115.788 238.376 113.754C241.956 111.475 245.008 109.359 247.531 107.406C250.379 105.209 252.739 102.768 254.611 100.082C256.483 97.3151 257.419 93.8971 257.419 89.8281C257.419 84.7826 256.442 80.9577 254.489 78.3535C252.536 75.7493 250.054 73.9997 247.043 73.1045C244.113 72.2093 241.061 71.7617 237.887 71.7617C230.482 71.7617 225.558 73.5521 223.117 77.1328C220.757 80.7135 219.577 85.0267 219.577 90.0723C219.577 95.9316 217.583 100.326 213.595 103.256C209.689 106.186 205.58 107.65 201.266 107.65C195.733 107.65 191.257 106.145 187.839 103.134C184.421 100.041 182.712 96.0944 182.712 91.293C182.712 89.0957 182.956 86.3695 183.444 83.1143C183.932 79.7777 184.868 76.2376 186.252 72.4941C187.635 68.7507 189.588 65.0072 192.111 61.2637C194.552 57.6829 197.848 54.3057 201.999 51.1318C206.068 48.1208 211.032 45.6794 216.891 43.8076C222.751 41.9359 229.749 41 237.887 41C247.083 41 255.14 42.2614 262.057 44.7842C269.056 47.2256 274.875 50.6436 279.513 55.0381C288.872 63.9899 293.552 76.0749 293.552 91.293ZM257.907 194.076C257.907 200.993 256.157 206.12 252.658 209.457C249.159 212.712 244.235 214.34 237.887 214.34C224.378 214.34 217.624 207.585 217.624 194.076C217.624 187.077 219.373 181.991 222.873 178.817C226.372 175.644 231.377 174.057 237.887 174.057C244.642 174.057 249.647 175.644 252.902 178.817C256.239 181.991 257.907 187.077 257.907 194.076Z" fill="#232323"/>
<path d="M426.008 153.424C424.254 157.185 421.957 160.379 419.116 163.005C416.236 165.523 413.107 167.611 409.73 169.269C406.353 170.927 402.858 172.26 399.245 173.269C397.401 173.757 395.612 174.224 393.876 174.672C392.175 175.046 390.475 175.42 388.774 175.794C385.406 176.469 382.275 177.119 379.379 177.744C376.592 178.33 374.355 179.083 372.669 180.003C371.951 180.386 371.005 181.068 369.83 182.046C368.69 182.951 367.759 184.178 367.036 185.727C365.179 189.71 362.395 192.407 358.683 193.819C355.046 195.266 350.609 194.768 345.372 192.326C339.767 189.712 336.432 186.272 335.369 182.005C334.306 177.738 334.6 173.834 336.25 170.294C338.52 165.426 341.329 161.617 344.676 158.868C347.955 156.266 351.452 154.35 355.168 153.12C358.919 151.816 362.7 150.93 366.51 150.462C370.718 149.91 374.378 149.282 377.49 148.578C381 147.791 384.171 146.575 387.002 144.933C389.868 143.216 392.16 140.514 393.88 136.826C396.012 132.253 396.744 128.374 396.074 125.188C395.405 122.003 393.895 119.368 391.544 117.284C389.267 115.235 386.69 113.539 383.814 112.198C377.102 109.068 371.883 108.61 368.157 110.823C364.505 113.071 361.613 116.482 359.481 121.054C357.004 126.365 353.34 129.505 348.488 130.475C343.709 131.479 339.366 131.07 335.457 129.247C330.441 126.909 327.021 123.653 325.196 119.479C323.405 115.232 323.524 110.932 325.553 106.581C326.482 104.59 327.855 102.222 329.674 99.478C331.526 96.6604 333.871 93.8475 336.706 91.0395C339.542 88.2314 342.895 85.6641 346.763 83.3375C350.489 81.124 354.903 79.4561 360.006 78.3336C364.967 77.3243 370.497 77.2096 376.599 77.9895C382.7 78.7694 389.439 80.879 396.814 84.3183C405.149 88.2047 411.917 92.7528 417.12 97.9626C422.432 103.133 426.261 108.69 428.608 114.633C433.306 126.701 432.44 139.632 426.008 153.424ZM350.265 231.513C347.342 237.782 343.59 241.689 339.008 243.235C334.461 244.706 329.311 244.1 323.558 241.418C311.314 235.708 308.047 226.732 313.756 214.489C316.714 208.146 320.45 204.275 324.962 202.878C329.475 201.48 334.682 202.157 340.582 204.909C346.704 207.763 350.569 211.317 352.178 215.569C353.861 219.855 353.223 225.17 350.265 231.513Z" fill="#232323"/>
<path d="M150.71 106.738C152.464 110.499 153.434 114.312 153.619 118.177C153.697 122.002 153.285 125.74 152.384 129.393C151.484 133.046 150.258 136.58 148.709 139.997C147.897 141.722 147.105 143.393 146.333 145.011C145.526 146.554 144.719 148.098 143.913 149.641C142.265 152.654 140.75 155.471 139.367 158.091C138.024 160.603 137.163 162.8 136.784 164.683C136.617 165.479 136.531 166.642 136.525 168.171C136.485 169.626 136.827 171.128 137.549 172.677C139.406 176.66 139.683 180.527 138.379 184.278C137.149 187.994 133.915 191.073 128.679 193.515C123.073 196.129 118.294 196.472 114.342 194.543C110.39 192.615 107.588 189.881 105.938 186.34C103.668 181.472 102.555 176.873 102.601 172.542C102.715 168.358 103.496 164.447 104.942 160.809C106.354 157.098 108.106 153.632 110.196 150.413C112.478 146.834 114.35 143.627 115.811 140.791C117.464 137.596 118.571 134.385 119.132 131.161C119.659 127.862 119.063 124.369 117.343 120.681C115.211 116.108 112.709 113.054 109.839 111.519C106.968 109.985 103.979 109.448 100.872 109.909C97.8382 110.336 94.8832 111.22 92.0067 112.561C85.295 115.691 81.5894 119.394 80.89 123.671C80.2644 127.914 81.0177 132.322 83.1501 136.895C85.6264 142.205 85.6766 147.03 83.3007 151.371C80.9986 155.677 77.893 158.741 73.9839 160.564C68.9686 162.903 64.2757 163.43 59.9055 162.146C55.5008 160.787 52.2839 157.932 50.2547 153.581C49.3261 151.59 48.3952 149.016 47.4621 145.859C46.4945 142.629 45.8466 139.025 45.5184 135.047C45.1901 131.07 45.3782 126.852 46.0826 122.393C46.7819 118.116 48.3417 113.662 50.762 109.031C53.1772 104.583 56.6445 100.272 61.1639 96.0996C65.6832 91.9269 71.6307 88.121 79.0062 84.6817C87.3406 80.7953 95.1755 78.5337 102.511 77.8967C109.886 77.1516 116.604 77.7902 122.665 79.8126C134.93 83.9706 144.278 92.9457 150.71 106.738ZM161.843 214.955C164.766 221.224 165.347 226.61 163.586 231.113C161.79 235.542 158.016 239.098 152.263 241.781C140.019 247.49 131.043 244.223 125.334 231.98C122.376 225.637 121.812 220.287 123.642 215.932C125.473 211.577 129.338 208.023 135.238 205.272C141.36 202.417 146.567 201.74 150.858 203.241C155.224 204.708 158.885 208.612 161.843 214.955Z" fill="#232323"/>
</svg>
