<svg width="419" height="225" viewBox="0 0 419 225" fill="none" xmlns="http://www.w3.org/2000/svg">
<path d="M264.552 50.293C264.552 54.4434 263.819 58.3089 262.354 61.8896C260.808 65.389 258.855 68.6035 256.495 71.5332C254.135 74.4629 251.531 77.1484 248.682 79.5898C247.218 80.8105 245.793 81.9906 244.41 83.1299C243.026 84.1878 241.643 85.2458 240.26 86.3037C237.493 88.3382 234.929 90.2507 232.569 92.041C230.29 93.75 228.581 95.3776 227.442 96.9238C226.954 97.5749 226.384 98.5921 225.733 99.9756C225.082 101.278 224.757 102.783 224.757 104.492C224.757 108.887 223.373 112.508 220.606 115.356C217.921 118.205 213.689 119.629 207.911 119.629C201.726 119.629 197.25 117.92 194.483 114.502C191.716 111.084 190.333 107.422 190.333 103.516C190.333 98.1445 191.269 93.5059 193.14 89.5996C195.012 85.8561 197.372 82.6416 200.22 79.9561C203.069 77.1891 206.121 74.7884 209.376 72.7539C212.956 70.4753 216.008 68.3594 218.531 66.4062C221.379 64.209 223.739 61.7676 225.611 59.082C227.483 56.3151 228.419 52.8971 228.419 48.8281C228.419 43.7826 227.442 39.9577 225.489 37.3535C223.536 34.7493 221.054 32.9997 218.043 32.1045C215.113 31.2093 212.061 30.7617 208.887 30.7617C201.482 30.7617 196.558 32.5521 194.117 36.1328C191.757 39.7135 190.577 44.0267 190.577 49.0723C190.577 54.9316 188.583 59.3262 184.595 62.2559C180.689 65.1855 176.58 66.6504 172.266 66.6504C166.733 66.6504 162.257 65.1449 158.839 62.1338C155.421 59.0413 153.712 55.0944 153.712 50.293C153.712 48.0957 153.956 45.3695 154.444 42.1143C154.932 38.7777 155.868 35.2376 157.252 31.4941C158.635 27.7507 160.588 24.0072 163.111 20.2637C165.552 16.6829 168.848 13.3057 172.999 10.1318C177.068 7.12077 182.032 4.67936 187.891 2.80762C193.751 0.935872 200.749 0 208.887 0C218.083 0 226.14 1.26139 233.057 3.78418C240.056 6.22559 245.875 9.64355 250.513 14.0381C259.872 22.9899 264.552 35.0749 264.552 50.293ZM228.907 153.076C228.907 159.993 227.157 165.12 223.658 168.457C220.159 171.712 215.235 173.34 208.887 173.34C195.378 173.34 188.624 166.585 188.624 153.076C188.624 146.077 190.373 140.991 193.873 137.817C197.372 134.644 202.377 133.057 208.887 133.057C215.642 133.057 220.647 134.644 223.902 137.817C227.239 140.991 228.907 146.077 228.907 153.076Z" fill="#232323"/>
<path d="M397.008 112.424C395.254 116.185 392.957 119.379 390.116 122.005C387.236 124.523 384.107 126.611 380.73 128.269C377.353 129.927 373.858 131.26 370.245 132.269C368.401 132.757 366.612 133.224 364.876 133.672C363.175 134.046 361.475 134.42 359.774 134.794C356.406 135.469 353.275 136.119 350.379 136.744C347.592 137.33 345.355 138.083 343.669 139.003C342.951 139.386 342.005 140.068 340.83 141.046C339.69 141.951 338.759 143.178 338.036 144.727C336.179 148.71 333.395 151.407 329.683 152.819C326.046 154.266 321.609 153.768 316.372 151.326C310.767 148.712 307.432 145.272 306.369 141.005C305.306 136.738 305.6 132.834 307.25 129.294C309.52 124.426 312.329 120.617 315.676 117.868C318.955 115.266 322.452 113.35 326.168 112.12C329.919 110.816 333.7 109.93 337.51 109.462C341.718 108.91 345.378 108.282 348.49 107.578C352 106.791 355.171 105.575 358.002 103.933C360.868 102.216 363.16 99.5136 364.88 95.8259C367.012 91.253 367.744 87.3738 367.074 84.1882C366.405 81.0026 364.895 78.3679 362.544 76.284C360.267 74.2346 357.69 72.5392 354.814 71.1979C348.102 68.0681 342.883 67.61 339.157 69.8235C335.505 72.0713 332.613 75.4817 330.481 80.0545C328.004 85.3649 324.34 88.5051 319.488 89.475C314.709 90.4794 310.366 90.0701 306.457 88.2473C301.441 85.9086 298.021 82.6525 296.196 78.4791C294.405 74.2319 294.524 69.9325 296.553 65.5809C297.482 63.5895 298.855 61.2219 300.674 58.478C302.526 55.6604 304.871 52.8475 307.706 50.0395C310.542 47.2314 313.895 44.6641 317.763 42.3375C321.489 40.124 325.903 38.4561 331.006 37.3336C335.967 36.3243 341.497 36.2096 347.599 36.9895C353.7 37.7694 360.439 39.879 367.814 43.3183C376.149 47.2047 382.917 51.7528 388.12 56.9626C393.432 62.133 397.261 67.6898 399.608 73.633C404.306 85.7013 403.44 98.6316 397.008 112.424ZM321.265 190.513C318.342 196.782 314.59 200.689 310.008 202.235C305.461 203.706 300.311 203.1 294.558 200.418C282.314 194.708 279.047 185.732 284.756 173.489C287.714 167.146 291.45 163.275 295.962 161.878C300.475 160.48 305.682 161.157 311.582 163.909C317.704 166.763 321.569 170.317 323.178 174.569C324.861 178.855 324.223 184.17 321.265 190.513Z" fill="#232323"/>
<path d="M121.71 65.738C123.464 69.4995 124.434 73.3124 124.619 77.1767C124.697 81.0017 124.285 84.7405 123.384 88.393C122.484 92.0456 121.258 95.5801 119.709 98.9965C118.897 100.722 118.105 102.393 117.333 104.011C116.526 105.554 115.719 107.098 114.913 108.641C113.265 111.654 111.75 114.471 110.367 117.091C109.024 119.603 108.163 121.8 107.784 123.683C107.617 124.479 107.531 125.642 107.525 127.171C107.485 128.626 107.827 130.128 108.549 131.677C110.406 135.66 110.683 139.527 109.379 143.278C108.149 146.994 104.915 150.073 99.6785 152.515C94.0731 155.129 89.2943 155.472 85.3421 153.543C81.3899 151.615 78.5884 148.881 76.9376 145.34C74.6677 140.472 73.5555 135.873 73.601 131.542C73.7153 127.358 74.4957 123.447 75.9422 119.809C77.3543 116.098 79.1055 112.632 81.1959 109.413C83.4782 105.834 85.3498 102.627 86.8108 99.7907C88.4636 96.5955 89.5707 93.3855 90.1321 90.1605C90.6592 86.8618 90.0629 83.3685 88.3432 79.6808C86.2109 75.1079 83.7093 72.0541 80.8386 70.5194C77.9679 68.9846 74.979 68.4479 71.8717 68.9091C68.8382 69.3359 65.8832 70.22 63.0067 71.5613C56.295 74.691 52.5894 78.3944 51.89 82.6714C51.2644 86.9141 52.0177 91.3218 54.1501 95.8947C56.6264 101.205 56.6766 106.03 54.3007 110.371C51.9986 114.677 48.893 117.741 44.9839 119.564C39.9686 121.903 35.2757 122.43 30.9055 121.146C26.5008 119.787 23.2839 116.932 21.2547 112.581C20.3261 110.59 19.3952 108.016 18.4621 104.859C17.4945 101.629 16.8466 98.0247 16.5184 94.0473C16.1901 90.0699 16.3782 85.8517 17.0826 81.3928C17.7819 77.1157 19.3417 72.662 21.762 68.0315C24.1772 63.5829 27.6445 59.2723 32.1639 55.0996C36.6832 50.9269 42.6307 47.121 50.0062 43.6817C58.3406 39.7953 66.1755 37.5337 73.5109 36.8967C80.8857 36.1516 87.6037 36.7902 93.6649 38.8126C105.93 42.9706 115.278 51.9457 121.71 65.738ZM132.843 173.955C135.766 180.224 136.347 185.61 134.586 190.113C132.79 194.542 129.016 198.098 123.263 200.781C111.019 206.49 102.043 203.223 96.3339 190.98C93.3761 184.637 92.8123 179.287 94.6425 174.932C96.4727 170.577 100.338 167.023 106.238 164.272C112.36 161.417 117.567 160.74 121.858 162.241C126.224 163.708 129.885 167.612 132.843 173.955Z" fill="#232323"/>
</svg>
