<?xml version="1.0" encoding="UTF-8"?>
<svg id="Calque_1" xmlns="http://www.w3.org/2000/svg" version="1.1" viewBox="0 0 563.29 281.22">
  <!-- Generator: Adobe Illustrator 29.0.1, SVG Export Plug-In . SVG Version: 2.1.0 Build 192)  -->
  <defs>
    <style>
      .st0 {
        fill: #fff;
      }
    </style>
  </defs>
  <g>
    <g>
      <path class="st0" d="M135.53,80.91l-43.7,115.35h22.49l6.79-18.84c4.18-9.99,12.17-10.77,21.44-10.61.61,0,1.18.01,1.69.01h24.58l10.4,29.44h24.1l-43.21-115.35h-24.58ZM144.24,147.21h-1.42c-2.45-.05-6.44-.1-11.04.6l15.31-42.49,14.8,41.89h-17.66Z"/>
      <polygon class="st0" points="323.94 112.23 323.94 116.85 323.94 146.32 323.94 196.25 346.27 196.25 346.27 146.32 346.27 116.85 346.27 112.23 346.27 80.91 323.94 80.91 323.94 112.23"/>
      <path class="st0" d="M282.91,157.69c-1.23-1.12-2.49-2.19-3.77-3.22,1-.37,1.99-.77,2.94-1.2.29-.13.55-.28.83-.41,6.28-3.03,11.18-7.3,14.66-12.84.16-.25.29-.51.44-.76h0c3.33-5.64,5.02-12.38,5.02-20.28,0-8.35-1.82-15.34-5.46-20.96-3.64-5.62-8.81-9.88-15.5-12.77-6.69-2.89-14.59-4.34-23.69-4.34h-41.92v115.31h22.32v-38.56h0v-18.62h0v-39.19h19.43c7.07,0,12.58,1.66,16.54,4.98,3.96,3.32,5.94,8.09,5.94,14.29,0,2.15-.26,4.14-.75,5.98h0c-.9,3.38-2.63,6.24-5.19,8.56-2.14,1.94-4.76,3.34-7.81,4.23-2.59.76-5.49,1.15-8.73,1.15h-.33l-.78,3.17-3.85,15.62-.84,3.41c5.97,2.35,11.4,5.64,16.22,9.81,5.35,4.63,9.97,10.33,13.72,17.06,1.43,2.56,2.73,5.26,3.91,8.1h20.76c-1.62-4.91-3.54-9.55-5.73-13.92-4.85-9.64-11.05-17.9-18.4-24.62Z"/>
      <path class="st0" d="M101.85,118.98c0-8.35-1.82-15.34-5.46-20.97-3.64-5.62-8.81-9.88-15.5-12.77-6.69-2.89-14.59-4.34-23.7-4.34H15.26v115.35h22.33v-96.39h19.44c7.07,0,12.58,1.66,16.55,4.98,3.96,3.32,5.94,8.09,5.94,14.3s-1.98,10.95-5.94,14.54c-3.96,3.59-9.48,5.38-16.55,5.38v.02c-.11,0-.23,0-.34,0l-4.6,18.66c1.5.09,3,.15,4.53.15.31,0,.63,0,.94,0v-.03c8.95-.04,16.73-1.56,23.33-4.57,6.69-3.05,11.86-7.47,15.5-13.25,3.64-5.78,5.46-12.8,5.46-21.04Z"/>
    </g>
    <g>
      <path class="st0" d="M539.71,161.02h-19.57c0-8.2-11.57-18.15-24.19-27.14-.97-.69-1.76-1.29-2.33-1.73-1.2-.92-2.23-1.72-3.18-2.46-3.59-2.79-5.96-4.63-12.88-9.52-12.1-8.54-30.35-19.89-49.15-19.89v-19.57c24.37,0,46.16,13.4,60.44,23.47,7.28,5.14,9.93,7.2,13.6,10.05.93.72,1.93,1.5,3.11,2.4.48.37,1.14.85,1.95,1.44,9.64,7.04,32.21,23.54,32.21,42.95Z"/>
      <path class="st0" d="M502.6,198.12c-9.91,0-19.23-3.86-26.24-10.87l13.84-13.84c3.31,3.31,7.71,5.13,12.39,5.13,9.67,0,17.53-7.86,17.53-17.53h19.57c0,20.46-16.64,37.1-37.1,37.1Z"/>
      <path class="st0" d="M536.54,52.74l-13.84,13.84c4.88,4.88,7.57,11.37,7.57,18.27,0,5.07-1.46,10.24-4.22,14.96h0c-2.9,4.95-7.19,9.35-12.4,12.72-5.14,3.32-10.2,6.16-15.1,8.9-8.23,4.61-15.99,8.96-21.9,14.52-7.51,7.07-11.16,15.27-11.16,25.07s3.86,19.23,10.87,26.24l13.84-13.84c-3.31-3.31-5.13-7.71-5.13-12.39,0-8.77,6.32-13.14,23.05-22.51,4.92-2.76,10.5-5.89,16.15-9.54,7.77-5.02,14.23-11.69,18.67-19.27h0c4.51-7.71,6.9-16.3,6.9-24.84,0-12.13-4.72-23.54-13.3-32.12Z"/>
      <path class="st0" d="M478.59,84.85h-19.57c0-25.04,20.37-45.42,45.42-45.42,12.13,0,23.54,4.72,32.11,13.3l-13.84,13.84c-4.88-4.88-11.37-7.57-18.27-7.57-14.25,0-25.84,11.59-25.84,25.84Z"/>
    </g>
    <path class="st0" d="M403.65,127c-3-.64-5.78-1.5-8.35-2.57-2.57-1.07-4.66-2.54-6.26-4.42-1.61-1.87-2.41-4.26-2.41-7.15s.8-5.54,2.41-7.95c.89-1.34,2.02-2.52,3.33-3.56l-11.43-15.52c-4.71,2.77-8.56,6.26-11.49,10.49-3.64,5.25-5.46,11.24-5.46,17.99,0,4.82.8,9.02,2.41,12.61,1.61,3.59,3.83,6.67,6.66,9.24,2.84,2.57,6.13,4.66,9.88,6.26,3.75,1.61,7.76,2.84,12.05,3.69l15.32,2.96,8.89-18.91-15.54-3.16Z"/>
  </g>
  <g>
    <path class="st0" d="M33.56,34.98c0,4.42-2.59,7.05-6.92,7.05s-6.88-2.64-6.88-7.05V14.5h-5.53v20.35c0,7.43,4.87,12.23,12.4,12.23s12.45-4.8,12.45-12.23V14.5h-5.53v20.48Z"/>
    <polygon class="st0" points="69.26 37.36 53.81 14.5 48.03 14.5 48.03 46.43 53.21 46.43 53.21 22.92 69.05 46.43 74.44 46.43 74.44 14.5 69.26 14.5 69.26 37.36"/>
    <rect class="st0" x="83.47" y="14.5" width="5.53" height="31.93"/>
    <polygon class="st0" points="109.91 39.38 101.09 14.5 95.17 14.5 106.82 46.18 106.91 46.43 112.68 46.43 124.42 14.5 118.85 14.5 109.91 39.38"/>
    <polygon class="st0" points="136.16 32.45 149.54 32.45 149.54 27.53 136.16 27.53 136.16 19.42 150.84 19.42 150.84 14.5 130.64 14.5 130.64 46.43 151.15 46.43 151.15 41.51 136.16 41.51 136.16 32.45"/>
    <path class="st0" d="M184.14,46.43l-8.57-12.57c4.53-1.28,7.32-4.79,7.32-9.26,0-6.33-4.43-10.1-11.84-10.1h-12.01v31.93h5.53v-11.73h5.16l7.77,11.73h6.64ZM164.57,19.25h6.18c3,0,6.57.93,6.57,5.36s-3.57,5.36-6.57,5.36h-6.18v-10.71Z"/>
    <path class="st0" d="M214.26,36.94c0-4.56-2.75-7.25-8.64-8.44l-4.6-.91c-3.67-.77-5.17-2-5.17-4.24s1.84-4.71,5.88-4.71c3.63,0,6.24,2.41,6.49,5.99l.02.35h5.61l-.03-.4c-.4-6.29-5.28-10.51-12.14-10.51s-11.45,4.03-11.45,9.58c0,4.66,2.92,7.61,8.69,8.75l4.51.87c3.55.77,5,2.02,5,4.32,0,2.86-2.56,4.71-6.53,4.71-4.38,0-6.92-2.19-7.14-6.16l-.02-.35h-5.62l.03.4c.41,6.59,5.33,10.69,12.84,10.69s12.27-3.99,12.27-9.93Z"/>
    <rect class="st0" x="222.07" y="14.5" width="5.53" height="31.93"/>
    <polygon class="st0" points="234.1 19.55 244.26 19.55 244.26 46.43 249.79 46.43 249.79 19.55 259.95 19.55 259.95 14.5 234.1 14.5 234.1 19.55"/>
    <polygon class="st0" points="284.75 6.03 278.62 6.03 273.71 12.99 279.35 12.99 284.75 6.03"/>
    <polygon class="st0" points="286.96 41.51 271.98 41.51 271.98 32.45 285.36 32.45 285.36 27.53 271.98 27.53 271.98 19.42 286.66 19.42 286.66 14.5 266.45 14.5 266.45 46.43 286.96 46.43 286.96 41.51"/>
    <path class="st0" d="M180.57,232.53h-10.23v31.93h10.23c9.6,0,16.05-6.47,16.05-16.1s-6.3-15.83-16.05-15.83ZM175.86,237.4h4.49c6.77,0,10.66,3.99,10.66,10.96s-3.88,11.22-10.66,11.22h-4.49v-22.18Z"/>
    <polygon class="st0" points="209.44 250.47 222.81 250.47 222.81 245.55 209.44 245.55 209.44 237.44 224.12 237.44 224.12 232.53 203.91 232.53 203.91 264.46 224.42 264.46 224.42 259.54 209.44 259.54 209.44 250.47"/>
    <path class="st0" d="M247.23,246.52l-4.6-.91c-3.67-.77-5.17-1.99-5.17-4.24s1.84-4.71,5.88-4.71c3.63,0,6.24,2.41,6.49,5.99l.02.35h5.61l-.03-.4c-.4-6.29-5.28-10.51-12.14-10.51s-11.45,4.03-11.45,9.58c0,4.67,2.92,7.61,8.69,8.75l4.51.87c3.55.77,5,2.02,5,4.32,0,2.86-2.56,4.71-6.53,4.71-4.38,0-6.92-2.19-7.14-6.16l-.02-.35h-5.62l.03.4c.41,6.59,5.33,10.69,12.84,10.69s12.27-3.99,12.27-9.93c0-4.56-2.75-7.25-8.64-8.45Z"/>
    <path class="st0" d="M289.8,236.92c4.9,0,8.91,3.41,9.75,8.29l.05.31h5.83l-.07-.43c-1.19-7.78-7.61-13.22-15.61-13.22-8.85,0-15.79,7.28-15.79,16.57s6.94,16.66,15.79,16.66c8.01,0,14.43-5.45,15.61-13.26l.07-.43h-5.83l-.05.31c-.85,4.9-4.85,8.33-9.75,8.33-5.97,0-10.13-4.77-10.13-11.61s4.17-11.52,10.13-11.52Z"/>
    <path class="st0" d="M336.48,242.63c0-6.33-4.43-10.1-11.84-10.1h-12.01v31.93h5.53v-11.73h5.16l7.77,11.73h6.64l-8.57-12.57c4.53-1.28,7.32-4.79,7.32-9.26ZM318.15,237.27h6.18c3,0,6.57.93,6.57,5.36s-3.57,5.36-6.57,5.36h-6.18v-10.71Z"/>
    <polygon class="st0" points="362.58 224.06 356.45 224.06 351.54 231.02 357.18 231.02 362.58 224.06"/>
    <polygon class="st0" points="349.81 250.47 363.19 250.47 363.19 245.55 349.81 245.55 349.81 237.44 364.49 237.44 364.49 232.53 344.29 232.53 344.29 264.46 364.8 264.46 364.8 259.54 349.81 259.54 349.81 250.47"/>
    <path class="st0" d="M382.23,232.53l-12.23,31.93h5.63l2.87-7.73h12.94l2.82,7.73h5.89l-12.14-31.93h-5.77ZM389.73,252.11h-9.52l4.8-12.92,4.72,12.92Z"/>
    <polygon class="st0" points="401.19 237.57 411.35 237.57 411.35 264.46 416.87 264.46 416.87 237.57 427.04 237.57 427.04 232.53 401.19 232.53 401.19 237.57"/>
    <rect class="st0" x="433.54" y="232.53" width="5.53" height="31.93"/>
    <path class="st0" d="M462.54,231.87c-9.25,0-16.23,7.12-16.23,16.57s6.98,16.66,16.23,16.66,16.23-7.16,16.23-16.66-6.98-16.57-16.23-16.57ZM473.06,248.45c0,6.73-4.43,11.61-10.53,11.61s-10.53-4.88-10.53-11.61,4.33-11.52,10.53-11.52,10.53,4.74,10.53,11.52Z"/>
    <polygon class="st0" points="507.25 255.39 491.8 232.53 486.01 232.53 486.01 264.46 491.19 264.46 491.19 240.95 507.03 264.46 512.43 264.46 512.43 232.53 507.25 232.53 507.25 255.39"/>
    <path class="st0" d="M536.36,246.52l-4.6-.91c-3.67-.77-5.17-1.99-5.17-4.24s1.84-4.71,5.88-4.71c3.63,0,6.24,2.41,6.49,5.99l.02.35h5.61l-.03-.4c-.4-6.29-5.28-10.51-12.14-10.51s-11.45,4.03-11.45,9.58c0,4.67,2.92,7.61,8.69,8.75l4.51.87c3.55.77,5,2.02,5,4.32,0,2.86-2.56,4.71-6.53,4.71-4.38,0-6.92-2.19-7.14-6.16l-.02-.35h-5.62l.03.4c.41,6.59,5.33,10.69,12.84,10.69s12.27-3.99,12.27-9.93c0-4.56-2.75-7.25-8.64-8.45Z"/>
  </g>
  <path class="st0" d="M445.73,141.05c-5.35-4.76-13.06-8.16-23.13-10.2l-3.41-.69-8.89,18.91,2.99.58c5.46,1.07,9.61,2.79,12.45,5.14,2.84,2.36,4.26,5.52,4.26,9.48,0,3.32-.99,6.18-2.97,8.59-1.98,2.41-4.66,4.23-8.03,5.46-3.37,1.23-7.26,1.85-11.64,1.85-7.82,0-13.81-1.98-17.99-5.94-4.18-3.96-6.48-9.21-6.91-15.74h-22.65c.64,7.93,2.94,14.83,6.91,20.72,3.96,5.89,9.42,10.47,16.38,13.73,6.96,3.27,15.2,4.9,24.73,4.9s17.85-1.58,24.65-4.74c6.8-3.16,12.05-7.52,15.74-13.09,3.69-5.57,5.54-11.88,5.54-18.95,0-8.57-2.68-15.23-8.03-20Z"/>
</svg>